<svg width="44" height="41" viewBox="0 0 44 41" fill="none" xmlns="http://www.w3.org/2000/svg">
<path d="M43.0082 11.5638L37.1718 1.11288C36.8313 0.503277 35.9507 0.00496282 35.217 0.00496282H21.7837C21.769 0.00437666 21.7543 0.000664314 21.7397 0C21.7277 0 21.7163 0.00441574 21.7043 0.0050019H8.51197C7.77759 0.0050019 6.89498 0.502065 6.54982 1.10917L0.728792 11.3587C0.38292 11.9658 0.452395 12.9193 0.880302 13.4789L20.9097 39.6276C21.1248 39.9083 21.4105 40.0502 21.6955 40.0502C21.9787 40.0502 22.2624 39.912 22.4787 39.6363L42.8372 13.679C43.2705 13.1243 43.3486 12.1728 43.0082 11.5638ZM39.8222 11.2573H32.6679L35.5327 3.5744L39.8222 11.2573ZM24.5075 2.50587H33.1019L30.4361 9.65421L24.5075 2.50587ZM28.3837 11.2573H15.9639L21.8337 3.35994L28.3837 11.2573ZM13.5979 10.0637L10.92 2.50587H19.2159L13.5979 10.0637ZM28.9058 13.7583L21.7275 33.0056L14.907 13.7583H28.9058ZM18.7319 32.4941L4.38058 13.7583H12.093L18.7319 32.4941ZM31.7345 13.7583H39.461L24.7325 32.5373L31.7345 13.7583ZM8.36497 3.23802L11.2064 11.2573H3.81043L8.36497 3.23802Z" fill="#FF8E4F"/>
</svg>
