<svg width="44" height="40" viewBox="0 0 44 40" fill="none" xmlns="http://www.w3.org/2000/svg">
<path d="M21.8644 40C17.6406 40 13.5117 38.827 9.9997 36.6294C6.48774 34.4318 3.7505 31.3082 2.13412 27.6537C0.517737 23.9992 0.0948185 19.9778 0.918842 16.0982C1.74286 12.2186 3.77682 8.65492 6.7635 5.85787C9.75018 3.06082 13.5554 1.15601 17.6981 0.384303C21.8407 -0.387401 26.1347 0.00866562 30.037 1.52242C33.9393 3.03617 37.2746 5.59962 39.6212 8.8886C41.9678 12.1776 43.2203 16.0444 43.2203 20C43.2203 25.3043 40.9704 30.3914 36.9653 34.1421C32.9603 37.8929 27.5284 40 21.8644 40ZM21.8644 2.50001C18.1686 2.50001 14.5558 3.52637 11.4828 5.44929C8.40982 7.37221 6.01474 10.1053 4.6004 13.303C3.18607 16.5008 2.81602 20.0194 3.53704 23.4141C4.25806 26.8088 6.03777 29.927 8.65111 32.3744C11.2645 34.8218 14.5941 36.4885 18.2189 37.1637C21.8437 37.839 25.6009 37.4924 29.0154 36.1679C32.4299 34.8434 35.3483 32.6003 37.4016 29.7225C39.4549 26.8446 40.5509 23.4612 40.5509 20C40.5509 15.3587 38.5821 10.9075 35.0777 7.62564C31.5733 4.34375 26.8204 2.50001 21.8644 2.50001Z" fill="#FFEC3F"/>
<path d="M20.5297 16.25H17.8602C17.8602 15.587 17.5789 14.9511 17.0783 14.4822C16.5777 14.0134 15.8987 13.75 15.1907 13.75C14.4827 13.75 13.8037 14.0134 13.3031 14.4822C12.8025 14.9511 12.5212 15.587 12.5212 16.25H9.85172C9.85172 14.9239 10.4142 13.6521 11.4155 12.7145C12.4167 11.7768 13.7747 11.25 15.1907 11.25C16.6067 11.25 17.9647 11.7768 18.9659 12.7145C19.9672 13.6521 20.5297 14.9239 20.5297 16.25Z" fill="#FFEC3F"/>
<path d="M33.8771 16.25H31.2076C31.2076 15.587 30.9264 14.9511 30.4258 14.4822C29.9251 14.0134 29.2461 13.75 28.5381 13.75C27.8301 13.75 27.1512 14.0134 26.6505 14.4822C26.1499 14.9511 25.8686 15.587 25.8686 16.25H23.1992C23.1992 14.9239 23.7617 13.6521 24.7629 12.7145C25.7642 11.7768 27.1222 11.25 28.5381 11.25C29.9541 11.25 31.3121 11.7768 32.3134 12.7145C33.3146 13.6521 33.8771 14.9239 33.8771 16.25Z" fill="#FFEC3F"/>
<path d="M21.8644 31.25C19.0325 31.25 16.3165 30.1964 14.314 28.3211C12.3115 26.4457 11.1865 23.9022 11.1865 21.25H13.856C13.856 23.2391 14.6997 25.1468 16.2016 26.5533C17.7035 27.9598 19.7404 28.75 21.8644 28.75C23.9884 28.75 26.0254 27.9598 27.5273 26.5533C29.0292 25.1468 29.8729 23.2391 29.8729 21.25H32.5424C32.5424 23.9022 31.4174 26.4457 29.4149 28.3211C27.4124 30.1964 24.6964 31.25 21.8644 31.25Z" fill="#FFEC3F"/>
</svg>
