<svg width="250" height="250" viewBox="0 0 250 250" fill="none" xmlns="http://www.w3.org/2000/svg">
<g clip-path="url(#clip0_21_1570)">
<path d="M117.862 2.08587L110.212 6.55664L15.9628 61.6376L8.31283 66.1084C4.60083 68.2836 1.84595 71.947 0.652576 76.2951C-0.540797 80.6432 -0.0752018 85.3207 1.94722 89.3016L72.1323 227.081C74.1631 231.057 77.5834 234.008 81.6428 235.286C85.7022 236.565 90.0693 236.066 93.7858 233.9L93.8056 233.888L203.315 169.889L203.335 169.877C207.047 167.702 209.802 164.039 210.995 159.691C212.188 155.342 211.723 150.665 209.7 146.684L139.515 8.90417C137.485 4.92822 134.064 1.97744 130.005 0.699201C125.945 -0.579039 121.578 -0.0803482 117.862 2.08587Z" fill="#F2F2F2"/>
<path d="M120.063 6.40556L111.002 11.7009L19.5741 65.1329L10.5134 70.4282C7.86994 71.9771 5.90812 74.586 5.05828 77.6823C4.20845 80.7787 4.54001 84.1097 5.98022 86.9445L76.1653 224.724C77.6115 227.556 80.0472 229.657 82.938 230.567C85.8288 231.478 88.9386 231.122 91.5853 229.58L91.605 229.568L201.115 165.569L201.134 165.557C203.778 164.008 205.74 161.399 206.589 158.303C207.439 155.207 207.108 151.876 205.667 149.041L135.482 11.2611C134.036 8.42974 131.601 6.32842 128.71 5.41814C125.819 4.50787 122.709 4.86298 120.063 6.40556Z" fill="white"/>
<path d="M121.573 49.1721L80.7304 73.0415C80.1116 73.4031 79.3841 73.4866 78.7079 73.2737C78.0317 73.0607 77.4621 72.5688 77.1245 71.906C76.7869 71.2433 76.7089 70.4641 76.9077 69.7397C77.1065 69.0154 77.5658 68.4054 78.1845 68.0438L119.027 44.1744C119.646 43.8128 120.374 43.7293 121.05 43.9422C121.726 44.1552 122.296 44.6471 122.633 45.3098C122.971 45.9726 123.049 46.7518 122.85 47.4761C122.651 48.2005 122.192 48.8105 121.573 49.1721H121.573Z" fill="#F2F2F2"/>
<path d="M135.493 51.9817L85.0265 81.4752C84.4077 81.8368 83.6802 81.9203 83.004 81.7074C82.3277 81.4944 81.7582 81.0025 81.4206 80.3398C81.083 79.677 81.005 78.8978 81.2038 78.1735C81.4026 77.4491 81.8619 76.8391 82.4806 76.4775L132.947 46.984C133.253 46.8049 133.59 46.6923 133.937 46.6524C134.284 46.6126 134.635 46.6464 134.969 46.7518C135.304 46.8572 135.616 47.0323 135.888 47.2669C136.16 47.5016 136.386 47.7913 136.553 48.1194C136.72 48.4476 136.825 48.8078 136.862 49.1795C136.9 49.5512 136.868 49.9271 136.77 50.2857C136.671 50.6444 136.508 50.9787 136.289 51.2697C136.07 51.5607 135.799 51.8027 135.493 51.9817H135.493Z" fill="#F2F2F2"/>
<path d="M63.9395 63.106L26.2848 85.1121C25.9884 85.2854 25.7683 85.5777 25.6731 85.9248C25.5779 86.2718 25.6152 86.6452 25.7769 86.9627L41.8112 118.44C41.973 118.757 42.2459 118.993 42.5699 119.095C42.8939 119.197 43.2425 119.157 43.539 118.984L81.1937 96.9776C81.4901 96.8042 81.7101 96.5119 81.8054 96.1649C81.9006 95.8179 81.8633 95.4445 81.7016 95.127L65.6673 63.65C65.5055 63.3325 65.2326 63.0969 64.9086 62.9949C64.5846 62.8928 64.236 62.9328 63.9395 63.106Z" fill="#F2F2F2"/>
<path d="M141.838 89.1116L86.4402 121.487C86.1338 121.666 85.7976 121.779 85.4505 121.819C85.1035 121.859 84.7526 121.825 84.4177 121.72C84.0829 121.614 83.7707 121.439 83.499 121.204C83.2274 120.97 83.0015 120.68 82.8343 120.352C82.6672 120.024 82.562 119.664 82.5248 119.292C82.4876 118.92 82.5191 118.544 82.6175 118.186C82.716 117.827 82.8794 117.493 83.0985 117.202C83.3176 116.911 83.588 116.669 83.8944 116.49L139.293 84.1139C139.911 83.7523 140.639 83.6688 141.315 83.8817C141.991 84.0946 142.561 84.5866 142.898 85.2493C143.236 85.912 143.314 86.6913 143.115 87.4156C142.916 88.1399 142.457 88.75 141.838 89.1116H141.838Z" fill="#F2F2F2"/>
<path d="M155.758 91.9212L90.7363 129.921C90.1176 130.283 89.39 130.366 88.7138 130.153C88.0376 129.94 87.468 129.448 87.1304 128.786C86.7928 128.123 86.7148 127.344 86.9136 126.619C87.1124 125.895 87.5717 125.285 88.1905 124.923L153.212 86.9235C153.831 86.5618 154.558 86.4783 155.235 86.6913C155.911 86.9042 156.48 87.3961 156.818 88.0589C157.156 88.7216 157.234 89.5008 157.035 90.2252C156.836 90.9495 156.377 91.5596 155.758 91.9212H155.758Z" fill="#F2F2F2"/>
<path d="M65.3419 148.002C71.569 148.002 76.617 142.595 76.617 135.925C76.617 129.255 71.569 123.848 65.3419 123.848C59.1149 123.848 54.0669 129.255 54.0669 135.925C54.0669 142.595 59.1149 148.002 65.3419 148.002Z" fill="#F2F2F2"/>
<path d="M234.041 58.8574H109.246C105.015 58.8625 100.958 60.6651 97.9664 63.8698C94.9745 67.0745 93.2916 71.4194 93.2868 75.9515V232.906C93.2916 237.438 94.9745 241.783 97.9664 244.988C100.958 248.192 105.015 249.995 109.246 250H234.041C238.272 249.995 242.329 248.192 245.32 244.988C248.312 241.783 249.995 237.438 250 232.906V75.9515C249.995 71.4194 248.312 67.0745 245.32 63.8698C242.329 60.6651 238.272 58.8625 234.041 58.8574Z" fill="#E6E6E6"/>
<path d="M234.041 63.7783H109.246C106.233 63.7819 103.344 65.0656 101.214 67.3477C99.0829 69.6298 97.8845 72.724 97.8811 75.9514V232.906C97.8845 236.133 99.0829 239.227 101.214 241.509C103.344 243.792 106.233 245.075 109.246 245.079H234.041C237.054 245.075 239.943 243.791 242.073 241.509C244.204 239.227 245.402 236.133 245.406 232.906V75.9514C245.402 72.724 244.204 69.6299 242.073 67.3478C239.943 65.0657 237.054 63.782 234.041 63.7783Z" fill="white"/>
<path d="M216.243 102.096H169.716C169.011 102.096 168.335 101.796 167.837 101.262C167.339 100.728 167.059 100.004 167.059 99.249C167.059 98.494 167.339 97.7699 167.837 97.2361C168.335 96.7022 169.011 96.4023 169.716 96.4023H216.243C216.592 96.4019 216.938 96.4752 217.261 96.6181C217.584 96.761 217.877 96.9706 218.124 97.235C218.371 97.4994 218.567 97.8133 218.701 98.1589C218.835 98.5044 218.904 98.8749 218.904 99.249C218.904 99.623 218.835 99.9935 218.701 100.339C218.567 100.685 218.371 100.999 218.124 101.263C217.877 101.527 217.584 101.737 217.261 101.88C216.938 102.023 216.592 102.096 216.243 102.096Z" fill="#BD1940"/>
<path d="M227.206 111.703H169.716C169.011 111.703 168.335 111.403 167.837 110.869C167.339 110.335 167.059 109.611 167.059 108.856C167.059 108.101 167.339 107.377 167.837 106.844C168.335 106.31 169.011 106.01 169.716 106.01H227.206C227.911 106.01 228.587 106.31 229.085 106.844C229.583 107.377 229.863 108.101 229.863 108.856C229.863 109.611 229.583 110.335 229.085 110.869C228.587 111.403 227.911 111.703 227.206 111.703Z" fill="#BD1940"/>
<path d="M159.42 84.7598H116.525C116.187 84.7599 115.863 84.9036 115.624 85.1594C115.385 85.4151 115.251 85.762 115.251 86.1237V121.981C115.251 122.343 115.385 122.69 115.624 122.946C115.863 123.201 116.187 123.345 116.525 123.345H159.42C159.757 123.345 160.081 123.201 160.32 122.946C160.559 122.69 160.693 122.343 160.693 121.981V86.1237C160.693 85.762 160.559 85.4151 160.32 85.1594C160.081 84.9036 159.757 84.7599 159.42 84.7598Z" fill="#E6E6E6"/>
<path d="M128.291 106.779C128.309 109.806 127.267 112.73 125.371 114.975C123.496 117.18 120.703 118.642 117.886 118.037C115.291 117.48 113.183 115.051 113.446 112.113C113.489 111.476 113.662 110.858 113.952 110.3C114.241 109.742 114.641 109.259 115.123 108.884C115.605 108.509 116.158 108.251 116.742 108.128C117.327 108.005 117.93 108.02 118.508 108.172C120.973 108.857 121.955 112.662 119.901 114.448C119.409 114.876 118.7 114.127 119.198 113.694C120.556 112.514 120.136 109.931 118.497 109.283C116.589 108.529 114.568 110.151 114.431 112.24C114.268 114.718 116.04 116.583 118.212 117.022C120.563 117.498 122.893 116.209 124.486 114.43C126.311 112.365 127.319 109.623 127.296 106.779C127.301 106.641 127.355 106.51 127.448 106.414C127.541 106.318 127.665 106.264 127.794 106.264C127.923 106.264 128.047 106.318 128.139 106.414C128.232 106.51 128.287 106.641 128.291 106.779Z" fill="#2F2E41"/>
<path d="M138.005 113.553C147.807 113.553 155.753 105.042 155.753 94.5427C155.753 84.0438 147.807 75.5327 138.005 75.5327C128.204 75.5327 120.257 84.0438 120.257 94.5427C120.257 105.042 128.204 113.553 138.005 113.553Z" fill="#BD1940"/>
<path d="M137.097 102.654L137.079 101.944C138.313 101.907 139.401 101.824 140.218 101.184C140.45 100.993 140.64 100.75 140.777 100.472C140.913 100.195 140.992 99.889 141.008 99.5758C141.022 99.3845 140.995 99.1922 140.929 99.0139C140.862 98.8356 140.759 98.6761 140.625 98.5477C140.083 98.0569 139.21 98.2157 138.573 98.5283L138.025 98.7978L139.077 90.5605L139.734 90.657L138.839 97.6639C139.704 97.3916 140.505 97.5088 141.054 98.0052C141.264 98.2022 141.43 98.4488 141.537 98.7256C141.644 99.0024 141.689 99.3019 141.67 99.6008C141.651 100.022 141.546 100.433 141.363 100.805C141.179 101.178 140.922 101.503 140.609 101.758C139.559 102.58 138.194 102.621 137.097 102.654Z" fill="#2F2E41"/>
<path d="M146.556 91.2612H142.984V91.9716H146.556V91.2612Z" fill="#2F2E41"/>
<path d="M135.281 91.2612H131.709V91.9716H135.281V91.2612Z" fill="#2F2E41"/>
<path d="M128.174 123.345C129.505 122.441 130.942 121.732 132.449 121.239C132.305 120.691 132.307 120.112 132.456 119.566C132.656 118.876 133.058 118.274 133.604 117.849C134.15 117.425 134.809 117.201 135.483 117.211H139.808C140.483 117.202 141.143 117.426 141.69 117.851C142.237 118.276 142.641 118.879 142.842 119.569C142.99 120.114 142.992 120.693 142.848 121.239C144.355 121.733 145.792 122.442 147.123 123.345H128.174Z" fill="#2F2E41"/>
<path d="M158.335 87.4877C158.012 87.0683 157.614 86.7218 157.165 86.4683C156.77 86.2479 156.333 86.1321 155.888 86.1309C155.277 86.1389 154.684 86.3527 154.193 86.7418C152.844 87.7648 151.908 89.9706 151.908 92.5245C151.908 95.7284 153.381 98.3853 155.294 98.847C155.489 98.8939 155.688 98.9177 155.888 98.9181C158.08 98.9181 159.867 96.0516 159.867 92.5245C159.867 90.4785 159.267 88.6564 158.335 87.4877Z" fill="#3F3D56"/>
<path d="M121.884 86.5891H121.88C121.437 86.2942 120.926 86.1357 120.405 86.1309C119.96 86.1321 119.522 86.2479 119.128 86.4683C118.678 86.7218 118.281 87.0683 117.957 87.4877L117.954 87.4913C117.025 88.6599 116.425 90.4821 116.425 92.5245C116.425 95.2808 117.513 97.6322 119.038 98.5309C119.456 98.7815 119.926 98.9147 120.405 98.9181C120.511 98.9181 120.617 98.9109 120.723 98.8968H120.726C122.769 98.6339 124.384 95.8776 124.384 92.5245C124.384 89.8391 123.346 87.5339 121.884 86.5891Z" fill="#3F3D56"/>
<path d="M119.287 97.9194C119.366 97.9193 119.444 97.8991 119.514 97.8604C119.584 97.8218 119.645 97.7658 119.691 97.6971C119.737 97.6284 119.767 97.5489 119.779 97.4653C119.791 97.3817 119.784 97.2962 119.758 97.2161C118.808 94.1879 118.522 90.9657 118.923 87.8C119.324 84.6342 120.401 81.6101 122.07 78.9626C123.74 76.3152 125.957 74.1158 128.549 72.5353C131.141 70.9548 134.038 70.0358 137.016 69.8497C139.994 69.6636 142.971 70.2154 145.717 71.4623C148.463 72.7092 150.904 74.6176 152.85 77.0391C154.795 79.4606 156.194 82.3301 156.935 85.4244C157.677 88.5188 157.743 91.7547 157.128 94.8807C157.101 95.019 157.126 95.1632 157.198 95.2816C157.27 95.4 157.383 95.4829 157.512 95.512C157.641 95.5412 157.776 95.5142 157.886 95.4371C157.997 95.3599 158.074 95.2389 158.101 95.1006C158.749 91.814 158.68 88.4117 157.9 85.1582C157.12 81.9047 155.65 78.8876 153.605 76.3415C151.559 73.7954 148.993 71.7888 146.106 70.4778C143.219 69.1667 140.088 68.5865 136.957 68.7822C133.827 68.978 130.78 69.9444 128.055 71.6063C125.33 73.2682 122.999 75.5809 121.244 78.3646C119.489 81.1484 118.357 84.3281 117.936 87.6567C117.514 90.9853 117.816 94.3731 118.816 97.5567C118.849 97.6624 118.912 97.7542 118.997 97.8192C119.081 97.8843 119.183 97.9193 119.287 97.9194Z" fill="#3F3D56"/>
<path d="M146.921 82.2259C147.624 83.2534 147.277 84.6381 146.537 85.524C145.574 86.6768 144.037 86.7495 142.703 86.5355C141.206 86.2955 139.618 85.5442 138.102 86.0505C136.811 86.482 135.889 87.7369 134.547 88.0522C133.357 88.3317 131.934 87.9617 131.516 86.6029C131.316 85.9499 132.276 85.6701 132.476 86.3196C132.746 87.1986 133.911 87.1811 134.579 86.9377C135.649 86.5475 136.473 85.5982 137.525 85.1448C138.765 84.6103 140.111 84.8516 141.373 85.1561C142.563 85.4431 143.933 85.8687 145.118 85.3325C145.995 84.9358 146.693 83.6862 146.062 82.7637C145.683 82.2099 146.546 81.6777 146.921 82.2259Z" fill="#2F2E41"/>
<path d="M216.173 147.552H153.065C152.716 147.552 152.371 147.478 152.048 147.335C151.726 147.192 151.433 146.983 151.186 146.718C150.939 146.454 150.743 146.14 150.61 145.795C150.476 145.449 150.407 145.079 150.407 144.705C150.407 144.332 150.476 143.962 150.61 143.616C150.743 143.271 150.939 142.957 151.186 142.693C151.433 142.428 151.726 142.219 152.048 142.076C152.371 141.933 152.716 141.859 153.065 141.859H216.173C216.877 141.86 217.553 142.16 218.05 142.694C218.548 143.228 218.828 143.951 218.828 144.705C218.828 145.46 218.548 146.183 218.05 146.717C217.553 147.251 216.877 147.551 216.173 147.552Z" fill="#E6E6E6"/>
<path d="M227.136 157.16H153.065C152.716 157.16 152.37 157.087 152.047 156.944C151.724 156.801 151.431 156.591 151.184 156.327C150.937 156.063 150.741 155.749 150.607 155.403C150.473 155.057 150.404 154.687 150.404 154.313C150.404 153.939 150.473 153.568 150.607 153.223C150.741 152.877 150.937 152.563 151.184 152.299C151.431 152.035 151.724 151.825 152.047 151.682C152.37 151.539 152.716 151.466 153.065 151.466H227.136C227.485 151.466 227.831 151.539 228.154 151.682C228.476 151.825 228.77 152.035 229.017 152.299C229.264 152.563 229.46 152.877 229.594 153.223C229.728 153.568 229.796 153.939 229.796 154.313C229.796 154.687 229.728 155.057 229.594 155.403C229.46 155.749 229.264 156.063 229.017 156.327C228.77 156.591 228.476 156.801 228.154 156.944C227.831 157.087 227.485 157.16 227.136 157.16Z" fill="#E6E6E6"/>
<path d="M216.173 182.082H153.065C152.36 182.082 151.684 181.782 151.186 181.249C150.687 180.715 150.407 179.991 150.407 179.236C150.407 178.481 150.687 177.757 151.186 177.223C151.684 176.689 152.36 176.389 153.065 176.389H216.173C216.878 176.389 217.554 176.689 218.052 177.223C218.551 177.757 218.831 178.481 218.831 179.236C218.831 179.991 218.551 180.715 218.052 181.249C217.554 181.782 216.878 182.082 216.173 182.082Z" fill="#E6E6E6"/>
<path d="M227.136 191.69H153.065C152.36 191.69 151.684 191.39 151.186 190.856C150.687 190.322 150.407 189.598 150.407 188.843C150.407 188.088 150.687 187.364 151.186 186.83C151.684 186.296 152.36 185.997 153.065 185.997H227.136C227.841 185.997 228.517 186.296 229.015 186.83C229.513 187.364 229.793 188.088 229.793 188.843C229.793 189.598 229.513 190.322 229.015 190.856C228.517 191.39 227.841 191.69 227.136 191.69Z" fill="#E6E6E6"/>
<path d="M128.088 161.479C134.315 161.479 139.363 156.072 139.363 149.402C139.363 142.733 134.315 137.326 128.088 137.326C121.861 137.326 116.813 142.733 116.813 149.402C116.813 156.072 121.861 161.479 128.088 161.479Z" fill="#E6E6E6"/>
<path d="M128.088 196.289C134.315 196.289 139.363 190.882 139.363 184.212C139.363 177.542 134.315 172.135 128.088 172.135C121.861 172.135 116.813 177.542 116.813 184.212C116.813 190.882 121.861 196.289 128.088 196.289Z" fill="#E6E6E6"/>
<path d="M216.173 216.892H153.065C152.36 216.892 151.684 216.592 151.186 216.058C150.687 215.524 150.407 214.8 150.407 214.045C150.407 213.29 150.687 212.566 151.186 212.032C151.684 211.499 152.36 211.199 153.065 211.199H216.173C216.878 211.199 217.554 211.499 218.052 212.032C218.551 212.566 218.831 213.29 218.831 214.045C218.831 214.8 218.551 215.524 218.052 216.058C217.554 216.592 216.878 216.892 216.173 216.892Z" fill="#E6E6E6"/>
<path d="M227.136 226.499H153.065C152.36 226.499 151.684 226.199 151.186 225.666C150.687 225.132 150.407 224.408 150.407 223.653C150.407 222.898 150.687 222.174 151.186 221.64C151.684 221.106 152.36 220.806 153.065 220.806H227.136C227.841 220.806 228.517 221.106 229.015 221.64C229.513 222.174 229.793 222.898 229.793 223.653C229.793 224.408 229.513 225.132 229.015 225.666C228.517 226.199 227.841 226.499 227.136 226.499Z" fill="#E6E6E6"/>
<path d="M128.088 231.098C134.315 231.098 139.363 225.691 139.363 219.022C139.363 212.352 134.315 206.945 128.088 206.945C121.861 206.945 116.813 212.352 116.813 219.022C116.813 225.691 121.861 231.098 128.088 231.098Z" fill="#E6E6E6"/>
</g>
<defs>
<clipPath id="clip0_21_1570">
<rect width="250" height="250" fill="white"/>
</clipPath>
</defs>
</svg>
