<svg width="44" height="40" viewBox="0 0 44 40" fill="none" xmlns="http://www.w3.org/2000/svg">
<path d="M32.1153 15.0545C32.3725 14.796 32.5125 14.4541 32.5059 14.1008C32.4992 13.7475 32.3464 13.4105 32.0796 13.1606C31.8128 12.9108 31.4529 12.7677 31.0757 12.7614C30.6985 12.7552 30.3334 12.8863 30.0574 13.1272L18.4669 23.9818L13.6715 19.4909C13.3955 19.25 13.0304 19.1188 12.6532 19.1251C12.276 19.1313 11.9161 19.2744 11.6493 19.5243C11.3825 19.7741 11.2297 20.1112 11.223 20.4644C11.2164 20.8177 11.3564 21.1596 11.6136 21.4181L17.438 26.8727C17.711 27.128 18.0811 27.2715 18.4669 27.2715C18.8528 27.2715 19.2229 27.128 19.4959 26.8727L32.1153 15.0545Z" fill="#7FFF30"/>
<path fill-rule="evenodd" clip-rule="evenodd" d="M21.8644 0C10.0701 0 0.508484 8.95455 0.508484 20C0.508484 31.0455 10.0701 40 21.8644 40C33.6587 40 43.2203 31.0455 43.2203 20C43.2203 8.95455 33.6587 0 21.8644 0ZM3.42066 20C3.42066 15.419 5.36383 11.0256 8.82271 7.78634C12.2816 4.54707 16.9728 2.72727 21.8644 2.72727C26.756 2.72727 31.4472 4.54707 34.9061 7.78634C38.365 11.0256 40.3082 15.419 40.3082 20C40.3082 24.581 38.365 28.9744 34.9061 32.2137C31.4472 35.4529 26.756 37.2727 21.8644 37.2727C16.9728 37.2727 12.2816 35.4529 8.82271 32.2137C5.36383 28.9744 3.42066 24.581 3.42066 20V20Z" fill="#88FF3F"/>
</svg>
